<svg width="668" height="668" viewBox="0 0 668 668" fill="none" xmlns="http://www.w3.org/2000/svg">
<path d="M167.333 300.667C167.333 282.257 182.257 267.333 200.667 267.333C219.076 267.333 234 282.257 234 300.667C234 319.077 219.076 334 200.667 334C182.257 334 167.333 319.077 167.333 300.667Z" fill="black"/>
<path d="M167.333 467.333C167.333 448.923 182.257 434 200.667 434C219.076 434 234 448.923 234 467.333C234 485.743 219.076 500.667 200.667 500.667C182.257 500.667 167.333 485.743 167.333 467.333Z" fill="black"/>
<path d="M300.667 300.667C300.667 282.257 315.59 267.333 334 267.333C352.41 267.333 367.333 282.257 367.333 300.667C367.333 319.077 352.41 334 334 334C315.59 334 300.667 319.077 300.667 300.667Z" fill="black"/>
<path d="M300.667 467.333C300.667 448.923 315.59 434 334 434C352.41 434 367.333 448.923 367.333 467.333C367.333 485.743 352.41 500.667 334 500.667C315.59 500.667 300.667 485.743 300.667 467.333Z" fill="black"/>
<path d="M434 300.667C434 282.257 448.923 267.333 467.333 267.333C485.743 267.333 500.667 282.257 500.667 300.667C500.667 319.077 485.743 334 467.333 334C448.923 334 434 319.077 434 300.667Z" fill="black"/>
<path d="M434 467.333C434 448.923 448.923 434 467.333 434C485.743 434 500.667 448.923 500.667 467.333C500.667 485.743 485.743 500.667 467.333 500.667C448.923 500.667 434 485.743 434 467.333Z" fill="black"/>
<path fill-rule="evenodd" clip-rule="evenodd" d="M200.667 0.666504C219.076 0.666504 234 15.5905 234 33.9998V67.3332H434V33.9998C434 15.5905 448.923 0.666504 467.333 0.666504C485.743 0.666504 500.667 15.5905 500.667 33.9998V67.3332C592.713 67.3332 667.333 141.952 667.333 234V500.666C667.333 592.713 592.713 667.333 500.667 667.333H167.333C75.286 667.333 0.666687 592.713 0.666687 500.666V234C0.666687 141.952 75.286 67.3332 167.333 67.3332V33.9998C167.333 15.5905 182.257 0.666504 200.667 0.666504ZM167.333 134C112.105 134 67.3334 178.771 67.3334 234V500.666C67.3334 555.896 112.105 600.666 167.333 600.666H500.667C555.897 600.666 600.667 555.896 600.667 500.666V234C600.667 178.771 555.897 134 500.667 134C500.667 152.409 485.743 167.333 467.333 167.333C448.923 167.333 434 152.409 434 134H234C234 152.409 219.076 167.333 200.667 167.333C182.257 167.333 167.333 152.409 167.333 134Z" fill="black"/>
</svg>
