<svg width="517" height="650" viewBox="0 0 517 650" fill="none" xmlns="http://www.w3.org/2000/svg">
<path d="M509.333 191.667L325 7.33333C320.317 2.64367 313.96 0.006 307.333 0H225C200.69 0 177.373 9.65766 160.182 26.8487C142.991 44.0393 133.333 67.355 133.333 91.6667V133.333H91.6667C67.355 133.333 44.0393 142.991 26.8487 160.182C9.65766 177.373 0 200.688 0 225V558.333C0 582.643 9.65766 605.96 26.8487 623.15C44.0393 640.343 67.355 650 91.6667 650H325C349.31 650 372.627 640.343 389.817 623.15C407.01 605.96 416.667 582.643 416.667 558.333V516.667H425C449.31 516.667 472.627 507.01 489.817 489.817C507.01 472.627 516.667 449.31 516.667 425V208.333C516.403 202.053 513.787 196.103 509.333 191.667ZM333.333 85.3333L431.333 183.333H333.333V85.3333ZM366.667 558.333C366.667 569.383 362.277 579.983 354.463 587.797C346.65 595.61 336.05 600 325 600H91.6667C80.616 600 70.018 595.61 62.204 587.797C54.39 579.983 50 569.383 50 558.333V225C50 213.949 54.39 203.351 62.204 195.537C70.018 187.723 80.616 183.333 91.6667 183.333H133.333V425C133.333 449.31 142.991 472.627 160.182 489.817C177.373 507.01 200.69 516.667 225 516.667H366.667V558.333ZM425 466.667H225C213.95 466.667 203.35 462.277 195.537 454.463C187.723 446.65 183.333 436.05 183.333 425V91.6667C183.333 80.616 187.723 70.018 195.537 62.204C203.35 54.39 213.95 50 225 50H283.333V208.333C283.42 214.937 286.08 221.246 290.75 225.916C295.42 230.585 301.73 233.247 308.333 233.333H466.667V425C466.667 436.05 462.277 446.65 454.463 454.463C446.65 462.277 436.05 466.667 425 466.667Z" fill="black"/>
</svg>
