<svg width="667" height="668" viewBox="0 0 667 668" fill="none" xmlns="http://www.w3.org/2000/svg">
<path d="M300 34.4181C299.943 16.0087 314.82 1.03806 333.23 0.980392C351.64 0.922725 366.61 15.7997 366.667 34.2091L300 34.4181Z" fill="black"/>
<path d="M410.527 277.17L367.563 320.4L366.667 34.209L300 34.418L300.897 320.61L257.668 277.65C244.609 264.673 223.503 264.738 210.527 277.797C197.55 290.853 197.616 311.96 210.675 324.937L210.758 325.02L210.791 325.053L334.633 448.12L457.353 324.623L457.54 324.437L457.567 324.41L457.593 324.383L457.79 324.187L410.527 277.17Z" fill="black"/>
<path d="M457.813 324.163C470.79 311.103 470.723 289.997 457.667 277.02C444.607 264.045 423.5 264.112 410.527 277.17L457.813 324.163Z" fill="black"/>
<path d="M66.6667 334C66.6667 297.18 96.5143 267.333 133.333 267.333C151.743 267.333 166.667 252.409 166.667 234C166.667 215.59 151.743 200.667 133.333 200.667C59.6953 200.667 0 260.362 0 334V534C0 607.637 59.6953 667.333 133.333 667.333H500C592.047 667.333 666.667 592.713 666.667 500.667V334C666.667 260.362 606.97 200.667 533.333 200.667C514.923 200.667 500 215.59 500 234C500 252.409 514.923 267.333 533.333 267.333C570.153 267.333 600 297.18 600 334V500.667C600 555.897 555.23 600.667 500 600.667H133.333C96.5143 600.667 66.6667 570.82 66.6667 534V334Z" fill="black"/>
</svg>
