<svg width="667" height="667" viewBox="0 0 667 667" fill="none" xmlns="http://www.w3.org/2000/svg">
<path d="M630 66.6667H295C287.66 47.3201 274.681 30.6226 257.743 18.7365C240.806 6.85044 220.69 0.32319 200 0C179.483 0.194752 159.522 6.69614 142.825 18.6222C126.129 30.5482 113.505 47.3215 106.667 66.6667H36.6667C32.0692 66.4425 27.4726 67.1274 23.1402 68.6822C18.8078 70.2369 14.8246 72.631 11.4187 75.7272C8.0128 78.8235 5.25109 82.5612 3.2917 86.7263C1.33231 90.8914 0.213727 95.402 0 100C0.213727 104.598 1.33231 109.109 3.2917 113.274C5.25109 117.439 8.0128 121.176 11.4187 124.273C14.8246 127.369 18.8078 129.763 23.1402 131.318C27.4726 132.873 32.0692 133.557 36.6667 133.333H106.667C113.505 152.678 126.129 169.452 142.825 181.378C159.522 193.304 179.483 199.805 200 200C220.69 199.677 240.806 193.15 257.743 181.263C274.681 169.377 287.66 152.68 295 133.333H630C634.597 133.557 639.194 132.873 643.526 131.318C647.859 129.763 651.842 127.369 655.248 124.273C658.654 121.176 661.416 117.439 663.375 113.274C665.334 109.109 666.453 104.598 666.667 100C666.453 95.402 665.334 90.8914 663.375 86.7263C661.416 82.5612 658.654 78.8235 655.248 75.7272C651.842 72.631 647.859 70.2369 643.526 68.6822C639.194 67.1274 634.597 66.4425 630 66.6667ZM200 133.333C193.407 133.333 186.963 131.378 181.481 127.716C175.999 124.053 171.727 118.847 169.204 112.756C166.681 106.665 166.021 99.963 167.307 93.497C168.593 87.031 171.768 81.0915 176.43 76.4298C181.092 71.768 187.031 68.5933 193.497 67.3072C199.963 66.021 206.665 66.6811 212.756 69.204C218.847 71.7269 224.053 75.9994 227.716 81.481C231.378 86.9626 233.333 93.4073 233.333 100C233.333 108.841 229.821 117.319 223.57 123.57C217.319 129.821 208.841 133.333 200 133.333Z" fill="black"/>
<path d="M630 300H561.667C554.327 280.653 541.348 263.956 524.41 252.07C507.472 240.184 487.356 233.656 466.667 233.333C446.149 233.528 426.188 240.029 409.492 251.955C392.796 263.881 380.172 280.655 373.333 300H36.6666C27.826 300 19.3476 303.512 13.0964 309.763C6.84515 316.014 3.33325 324.493 3.33325 333.333C3.33325 342.174 6.84515 350.652 13.0964 356.903C19.3476 363.155 27.826 366.667 36.6666 366.667H373.333C380.172 386.012 392.796 402.785 409.492 414.711C426.188 426.637 446.149 433.138 466.667 433.333C487.356 433.01 507.472 426.483 524.41 414.597C541.348 402.711 554.327 386.013 561.667 366.667H630C638.84 366.667 647.319 363.155 653.57 356.903C659.821 350.652 663.333 342.174 663.333 333.333C663.333 324.493 659.821 316.014 653.57 309.763C647.319 303.512 638.84 300 630 300ZM466.667 366.667C460.074 366.667 453.629 364.712 448.148 361.049C442.666 357.386 438.393 352.18 435.871 346.089C433.348 339.999 432.688 333.296 433.974 326.83C435.26 320.364 438.435 314.425 443.096 309.763C447.758 305.101 453.698 301.927 460.164 300.64C466.63 299.354 473.332 300.014 479.423 302.537C485.514 305.06 490.72 309.333 494.382 314.814C498.045 320.296 500 326.741 500 333.333C500 342.174 496.488 350.652 490.237 356.903C483.986 363.155 475.507 366.667 466.667 366.667Z" fill="black"/>
<path d="M630 533.333H345C337.66 513.987 324.681 497.289 307.743 485.403C290.806 473.517 270.69 466.99 250 466.667C229.483 466.861 209.522 473.363 192.825 485.289C176.129 497.215 163.505 513.988 156.667 533.333H36.6666C27.826 533.333 19.3476 536.845 13.0964 543.096C6.84515 549.347 3.33325 557.826 3.33325 566.667C3.33325 575.507 6.84515 583.986 13.0964 590.237C19.3476 596.488 27.826 600 36.6666 600H156.667C163.505 619.345 176.129 636.118 192.825 648.044C209.522 659.97 229.483 666.472 250 666.666C270.69 666.343 290.806 659.816 307.743 647.93C324.681 636.044 337.66 619.346 345 600H630C638.84 600 647.319 596.488 653.57 590.237C659.821 583.986 663.333 575.507 663.333 566.667C663.333 557.826 659.821 549.347 653.57 543.096C647.319 536.845 638.84 533.333 630 533.333ZM250 600C243.407 600 236.963 598.045 231.481 594.382C225.999 590.719 221.727 585.513 219.204 579.423C216.681 573.332 216.021 566.629 217.307 560.163C218.593 553.697 221.768 547.758 226.43 543.096C231.091 538.434 237.031 535.26 243.497 533.974C249.963 532.687 256.665 533.348 262.756 535.871C268.847 538.393 274.053 542.666 277.716 548.147C281.378 553.629 283.333 560.074 283.333 566.667C283.333 575.507 279.821 583.986 273.57 590.237C267.319 596.488 258.84 600 250 600Z" fill="black"/>
</svg>
