<svg width="667" height="667" viewBox="0 0 667 667" fill="none" xmlns="http://www.w3.org/2000/svg">
<path d="M658.835 7.63037C648.835 -2.36963 632.501 -2.36963 622.501 7.63037L7.5 622.963C-2.5 632.963 -2.5 649.297 7.5 659.297C12.5 663.963 18.8333 666.63 25.5 666.63C32.1667 666.63 38.5 663.963 43.5 658.963L658.835 43.6304C669.168 33.6304 669.168 17.6304 658.835 7.63037Z" fill="#111111"/>
<path d="M427.155 50.6958V239.362L239.155 427.363V376.03H136.155C89.488 376.03 76.488 347.363 107.488 312.363L333.155 55.6958L359.821 25.3625C396.821 -16.6375 427.155 -5.3042 427.155 50.6958Z" fill="#111111"/>
<path d="M558.795 354.29L333.128 610.957L306.461 641.29C269.461 683.29 239.128 671.957 239.128 615.957V527.29L475.795 290.627H530.128C576.795 290.627 589.795 319.29 558.795 354.29Z" fill="#111111"/>
</svg>
