<svg width="667" height="667" viewBox="0 0 667 667" fill="none" xmlns="http://www.w3.org/2000/svg">
<path d="M333.333 0C149.333 0 0 149.333 0 333.333C0 517.333 149.333 666.667 333.333 666.667C517.333 666.667 666.667 517.333 666.667 333.333C666.667 149.333 517.667 0 333.333 0ZM458.333 345L334.333 486L319.667 502.667C299.333 525.667 282.667 519.667 282.667 488.667V356.667H226C200.333 356.667 193.333 341 210.333 321.667L334.333 180.667L349 164C369.333 141 386 147 386 178V310H442.667C468.333 310 475.333 325.667 458.333 345Z" fill="#111111"/>
</svg>
