<svg width="767" height="767" viewBox="0 0 767 767" fill="none" xmlns="http://www.w3.org/2000/svg">
<path fill-rule="evenodd" clip-rule="evenodd" d="M66.6667 383.333C66.6667 299.348 100.03 218.803 159.416 159.416C218.803 100.03 299.348 66.6667 383.333 66.6667C467.319 66.6667 547.864 100.03 607.25 159.416C666.637 218.803 700 299.348 700 383.333C700 467.319 666.637 547.864 607.25 607.25C547.864 666.637 467.319 700 383.333 700C299.348 700 218.803 666.637 159.416 607.25C100.03 547.864 66.6667 467.319 66.6667 383.333ZM383.333 0C171.633 0 0 171.633 0 383.333C0 595.033 171.633 766.667 383.333 766.667C595.033 766.667 766.667 595.033 766.667 383.333C766.667 171.633 595.033 0 383.333 0ZM350 216.667C350 207.826 353.512 199.348 359.763 193.096C366.014 186.845 374.493 183.333 383.333 183.333C392.174 183.333 400.652 186.845 406.904 193.096C413.155 199.348 416.667 207.826 416.667 216.667V383.333H550C558.841 383.333 567.319 386.845 573.57 393.096C579.821 399.348 583.333 407.826 583.333 416.667C583.333 425.507 579.821 433.986 573.57 440.237C567.319 446.488 558.841 450 550 450H383.333C374.493 450 366.014 446.488 359.763 440.237C353.512 433.986 350 425.507 350 416.667V216.667Z" fill="#111111"/>
</svg>
