<svg width="600" height="600" viewBox="0 0 600 600" fill="none" xmlns="http://www.w3.org/2000/svg">
<path fill-rule="evenodd" clip-rule="evenodd" d="M106.833 0H493.167C530.3 0 543.8 3.86667 557.367 11.1333C570.933 18.4 581.6 29.0667 588.867 42.6333C596.133 56.2 600 69.6667 600 106.833V357.167L453.633 222.067C448.322 217.166 442.011 213.475 435.136 211.248C428.261 209.021 420.985 208.31 413.809 209.166C406.633 210.021 399.728 212.422 393.569 216.203C387.41 219.984 382.144 225.055 378.133 231.067L273.8 387.567L197.033 338.233C186.799 331.658 174.518 329.039 162.492 330.868C150.465 332.696 139.518 338.847 131.7 348.167L0.16667 505C0.0571698 501.056 0.00160526 497.112 0 493.167V106.833C0 69.6667 3.86667 56.2 11.1333 42.6333C18.4 29.0667 29.0667 18.4 42.6333 11.1333C56.2 3.86667 69.6667 0 106.833 0ZM422.733 284.333L600 447.9V493.133C600 530.267 596.133 543.767 588.867 557.333C581.762 570.754 570.787 581.729 557.367 588.833C543.8 596.1 530.333 599.967 493.167 599.967H106.833C69.6667 599.967 56.2 596.1 42.6333 588.833C36.7701 585.715 31.3359 581.849 26.4667 577.333L173.333 402.233L251.533 452.5C262.567 459.59 275.945 462.06 288.783 459.379C301.622 456.698 312.892 449.08 320.167 438.167L422.733 284.333ZM166.267 100C129.267 100 100 127.733 100 166.267C100 204.833 129.3 233.333 166.267 233.333C204.033 233.333 233.333 204.833 233.333 166.267C233.333 127.733 204.033 100 166.267 100Z" fill="#111111"/>
</svg>
