<svg width="668" height="668" viewBox="0 0 668 668" fill="none" xmlns="http://www.w3.org/2000/svg">
<path d="M34.0001 200.667C25.1595 200.667 16.6811 197.155 10.4299 190.904C4.17864 184.652 0.666748 176.174 0.666748 167.333V67.3334C0.666748 49.6523 7.69053 32.6953 20.193 20.1929C32.6954 7.69047 49.6523 0.666687 67.3334 0.666687H167.333C176.174 0.666687 184.652 4.17858 190.904 10.4298C197.155 16.681 200.667 25.1595 200.667 34C200.667 42.8406 197.155 51.319 190.904 57.5702C184.652 63.8215 176.174 67.3334 167.333 67.3334H67.3334V167.333C67.3334 176.174 63.8215 184.652 57.5703 190.904C51.3191 197.155 42.8406 200.667 34.0001 200.667Z" fill="#111111"/>
<path d="M634 200.667C625.159 200.667 616.681 197.155 610.43 190.904C604.178 184.652 600.667 176.174 600.667 167.333V67.3334H500.667C491.826 67.3334 483.348 63.8215 477.096 57.5702C470.845 51.319 467.333 42.8406 467.333 34C467.333 25.1595 470.845 16.681 477.096 10.4298C483.348 4.17858 491.826 0.666687 500.667 0.666687H600.667C618.348 0.666687 635.305 7.69047 647.807 20.1929C660.309 32.6953 667.333 49.6523 667.333 67.3334V167.333C667.333 176.174 663.821 184.652 657.57 190.904C651.319 197.155 642.84 200.667 634 200.667Z" fill="#111111"/>
<path d="M167.333 667.333H67.3334C49.6523 667.333 32.6954 660.31 20.193 647.807C7.69053 635.305 0.666748 618.348 0.666748 600.667V500.667C0.666748 491.826 4.17864 483.348 10.4299 477.096C16.6811 470.845 25.1595 467.333 34.0001 467.333C42.8406 467.333 51.3191 470.845 57.5703 477.096C63.8215 483.348 67.3334 491.826 67.3334 500.667V600.667H167.333C176.174 600.667 184.652 604.179 190.904 610.43C197.155 616.681 200.667 625.159 200.667 634C200.667 642.841 197.155 651.319 190.904 657.57C184.652 663.821 176.174 667.333 167.333 667.333Z" fill="#111111"/>
<path d="M600.667 667.333H500.667C491.826 667.333 483.348 663.821 477.096 657.57C470.845 651.319 467.333 642.841 467.333 634C467.333 625.159 470.845 616.681 477.096 610.43C483.348 604.179 491.826 600.667 500.667 600.667H600.667V500.667C600.667 491.826 604.178 483.348 610.43 477.096C616.681 470.845 625.159 467.333 634 467.333C642.84 467.333 651.319 470.845 657.57 477.096C663.821 483.348 667.333 491.826 667.333 500.667V600.667C667.333 618.348 660.309 635.305 647.807 647.807C635.305 660.31 618.348 667.333 600.667 667.333Z" fill="#111111"/>
<path d="M634 367.333H34.0001C25.1595 367.333 16.6811 363.821 10.4299 357.57C4.17864 351.319 0.666748 342.841 0.666748 334C0.666748 325.159 4.17864 316.681 10.4299 310.43C16.6811 304.179 25.1595 300.667 34.0001 300.667H634C642.841 300.667 651.319 304.179 657.57 310.43C663.822 316.681 667.333 325.159 667.333 334C667.333 342.841 663.822 351.319 657.57 357.57C651.319 363.821 642.841 367.333 634 367.333Z" fill="#111111"/>
</svg>
