<svg width="715" height="651" viewBox="0 0 715 651" fill="none" xmlns="http://www.w3.org/2000/svg">
<path d="M60.4353 390.15C42.812 358.47 34 342.627 34 325.333C34 308.04 42.812 292.197 60.4357 260.517L105.411 179.667L152.941 100.292C171.566 69.189 180.879 53.6373 195.856 44.99C210.834 36.3427 228.958 36.0533 265.207 35.4753L357.713 34L450.219 35.4753C486.466 36.0533 504.593 36.3427 519.569 44.99C534.546 53.6373 543.859 69.189 562.483 100.292L610.016 179.667L654.989 260.517C672.613 292.197 681.426 308.04 681.426 325.333C681.426 342.627 672.613 358.47 654.989 390.15L610.016 471L562.483 550.373C543.859 581.477 534.546 597.03 519.569 605.677C504.593 614.323 486.466 614.613 450.219 615.19L357.713 616.667L265.207 615.19C228.958 614.613 210.834 614.323 195.856 605.677C180.879 597.03 171.566 581.477 152.941 550.373L105.411 471L60.4353 390.15Z" stroke="#111111" stroke-width="66.6667"/>
<path d="M357.713 425.333C412.941 425.333 457.713 380.562 457.713 325.333C457.713 270.105 412.941 225.333 357.713 225.333C302.484 225.333 257.713 270.105 257.713 325.333C257.713 380.562 302.484 425.333 357.713 425.333Z" stroke="#111111" stroke-width="66.6667"/>
</svg>
