<svg width="729" height="584" viewBox="0 0 729 584" fill="none" xmlns="http://www.w3.org/2000/svg">
<path fill-rule="evenodd" clip-rule="evenodd" d="M0.666992 508.96C0.666992 330.93 130.723 184.366 300.665 153.533V75.7065C300.665 13.2958 372.447 -21.8122 421.71 16.5048L699.807 232.8C738.41 262.827 738.414 321.173 699.807 351.203L421.714 567.497C372.447 605.813 300.667 570.707 300.667 508.293V442.63C225.369 457.083 166.084 495.857 131.593 548.127C111.741 578.21 77.523 584.45 52.6553 577.45C27.4913 570.37 0.670659 546.353 0.666992 508.96ZM380.78 69.1285C375.307 64.8712 367.33 68.7718 367.33 75.7065V205.891C367.33 210.493 363.577 214.212 358.977 214.336C237.032 217.612 133.258 292.383 89.5197 397.52C82.9377 413.34 77.7153 429.847 73.995 446.903C69.8517 465.9 67.5713 485.573 67.3513 505.733C67.3397 506.807 67.3337 507.883 67.3337 508.96C67.334 513.457 73.473 515.16 75.949 511.407C76.4893 510.59 77.034 509.773 77.5827 508.96C77.583 508.96 77.5823 508.96 77.5827 508.96C88.4823 492.813 101.02 477.883 114.998 464.267C124.496 455.017 134.659 446.377 145.426 438.373C202.628 395.86 276.881 371.41 358.987 369.857C363.59 369.77 367.334 373.51 367.334 378.113V508.293C367.334 515.23 375.31 519.13 380.784 514.873L658.877 298.577C663.167 295.243 663.167 288.76 658.877 285.423L380.78 69.1285Z" fill="#0F1729"/>
</svg>
