<svg width="667" height="667" viewBox="0 0 667 667" fill="none" xmlns="http://www.w3.org/2000/svg">
<path fill-rule="evenodd" clip-rule="evenodd" d="M66.6667 300C66.6667 171.134 171.134 66.6667 300 66.6667C428.867 66.6667 533.333 171.134 533.333 300C533.333 428.867 428.867 533.333 300 533.333C171.134 533.333 66.6667 428.867 66.6667 300ZM300 0C134.315 0 0 134.315 0 300C0 465.687 134.315 600 300 600C370.833 600 435.933 575.45 487.257 534.397L609.763 656.903C622.78 669.92 643.887 669.92 656.903 656.903C669.92 643.887 669.92 622.78 656.903 609.763L534.397 487.257C575.45 435.933 600 370.833 600 300C600 134.315 465.687 0 300 0Z" fill="#111111"/>
<path fill-rule="evenodd" clip-rule="evenodd" d="M166.667 300C166.667 281.59 181.591 266.667 200 266.667H400C418.41 266.667 433.334 281.59 433.334 300C433.334 318.41 418.41 333.333 400 333.333H200C181.591 333.333 166.667 318.41 166.667 300Z" fill="#111111"/>
</svg>
