<svg width="668" height="668" viewBox="0 0 668 668" fill="none" xmlns="http://www.w3.org/2000/svg">
<path fill-rule="evenodd" clip-rule="evenodd" d="M67.3332 300.667C67.3332 171.8 171.8 67.3334 300.666 67.3334C429.533 67.3334 534 171.8 534 300.667C534 429.533 429.533 534 300.666 534C171.8 534 67.3332 429.533 67.3332 300.667ZM300.666 0.666748C134.981 0.666748 0.666504 134.981 0.666504 300.667C0.666504 466.353 134.981 600.667 300.666 600.667C371.5 600.667 436.6 576.117 487.923 535.063L610.43 657.57C623.446 670.587 644.553 670.587 657.57 657.57C670.586 644.553 670.586 623.447 657.57 610.43L535.063 487.923C576.116 436.6 600.666 371.5 600.666 300.667C600.666 134.981 466.353 0.666748 300.666 0.666748Z" fill="#111111"/>
<path fill-rule="evenodd" clip-rule="evenodd" d="M267.333 400.667C267.333 419.077 282.257 434 300.667 434C319.077 434 334 419.077 334 400.667V334H400.667C419.077 334 434 319.077 434 300.667C434 282.257 419.077 267.333 400.667 267.333H334V200.667C334 182.257 319.077 167.333 300.667 167.333C282.257 167.333 267.333 182.257 267.333 200.667V267.333H200.667C182.257 267.333 167.333 282.257 167.333 300.667C167.333 319.077 182.257 334 200.667 334H267.333V400.667Z" fill="#111111"/>
</svg>
